HIERARCHY
ROOT Hips
{
	OFFSET 0.000000 0.000000 0.000000
	CHANNELS 6 Xposition Yposition Zposition Zrotation Xrotation Yrotation
	JOINT Spine
	{
		OFFSET 0.000000 -0.000012 73.129562
		CHANNELS 6 Xposition Yposition Zposition Zrotation Xrotation Yrotation
		JOINT Spine1
		{
			OFFSET 0.000000 -0.000027 165.477310
			CHANNELS 6 Xposition Yposition Zposition Zrotation Xrotation Yrotation
			JOINT Neck
			{
				OFFSET 0.000000 -0.000030 183.313782
				CHANNELS 6 Xposition Yposition Zposition Zrotation Xrotation Yrotation
				JOINT Head
				{
					OFFSET 0.000000 -17.836500 138.232727
					CHANNELS 6 Xposition Yposition Zposition Zrotation Xrotation Yrotation
					End Site
					{
						OFFSET 0.000000 -0.000029 178.364807
					}
				}
			}
			JOINT LeftShoulder
			{
				OFFSET 35.598560 3.890319 149.571350
				CHANNELS 6 Xposition Yposition Zposition Zrotation Xrotation Yrotation
				JOINT LeftArm
				{
					OFFSET 103.175430 0.000000 0.000000
					CHANNELS 6 Xposition Yposition Zposition Zrotation Xrotation Yrotation
					JOINT LeftForeArm
					{
						OFFSET 267.561951 0.000000 0.000000
						CHANNELS 6 Xposition Yposition Zposition Zrotation Xrotation Yrotation
						JOINT LeftHand
						{
							OFFSET 239.300110 0.000000 0.000000
							CHANNELS 6 Xposition Yposition Zposition Zrotation Xrotation Yrotation
							End Site
							{
								OFFSET 133.773621 0.000000 0.000000
							}
						}
					}
				}
			}
			JOINT RightShoulder
			{
				OFFSET -35.671310 3.890319 149.571350
				CHANNELS 6 Xposition Yposition Zposition Zrotation Xrotation Yrotation
				JOINT RightArm
				{
					OFFSET -103.175430 0.000000 0.000000
					CHANNELS 6 Xposition Yposition Zposition Zrotation Xrotation Yrotation
					JOINT RightForeArm
					{
						OFFSET -267.561951 0.000000 0.000000
						CHANNELS 6 Xposition Yposition Zposition Zrotation Xrotation Yrotation
						JOINT RightHand
						{
							OFFSET -239.300110 0.000000 0.000000
							CHANNELS 6 Xposition Yposition Zposition Zrotation Xrotation Yrotation
							End Site
							{
								OFFSET -133.773621 0.000000 0.000000
							}
						}
					}
				}
			}
		}
	}
	JOINT LeftUpLeg
	{
		OFFSET 89.182388 0.000000 0.000000
		CHANNELS 6 Xposition Yposition Zposition Zrotation Xrotation Yrotation
		JOINT LeftLeg
		{
			OFFSET 0.000000 0.000076 -464.167633
			CHANNELS 6 Xposition Yposition Zposition Zrotation Xrotation Yrotation
			JOINT LeftFoot
			{
				OFFSET 0.000000 0.000061 -372.878387
				CHANNELS 6 Xposition Yposition Zposition Zrotation Xrotation Yrotation
				JOINT LeftToeBase
				{
					OFFSET 0.000000 -133.773575 -57.968567
					CHANNELS 6 Xposition Yposition Zposition Zrotation Xrotation Yrotation
					End Site
					{
						OFFSET 0.000000 -35.672958 0.000000
					}
				}
			}
		}
	}
	JOINT RightUpLeg
	{
		OFFSET -89.182388 0.000000 0.000000
		CHANNELS 6 Xposition Yposition Zposition Zrotation Xrotation Yrotation
		JOINT RightLeg
		{
			OFFSET 0.000000 0.000076 -464.167633
			CHANNELS 6 Xposition Yposition Zposition Zrotation Xrotation Yrotation
			JOINT RightFoot
			{
				OFFSET 0.000000 0.000061 -372.878387
				CHANNELS 6 Xposition Yposition Zposition Zrotation Xrotation Yrotation
				JOINT RightToeBase
				{
					OFFSET 0.000000 -133.773575 -57.968567
					CHANNELS 6 Xposition Yposition Zposition Zrotation Xrotation Yrotation
					End Site
					{
						OFFSET 0.000000 -35.672958 0.000000
					}
				}
			}
		}
	}
}
MOTION
Frames: 4
Frame Time: 0.041667
-18.783375 -636.973755 850.367188 86.347620 4.343798 -0.318762 -0.000000 -0.000027 73.129509 -4.969394 -6.677252 -6.101548 0.000072 -0.000029 165.477325 -1.433262 -4.263164 2.855854 0.000035 -0.000026 183.313828 -30.472865 13.939059 18.847285 0.000057 -17.836393 138.232681 -27.081379 27.608007 -31.338072 35.598488 3.890292 149.571381 -11.865977 -1.842618 -20.097243 103.175522 0.000036 0.000118 -3.595486 20.505020 6.230642 267.561890 0.000009 -0.000062 -1.371374 -20.487883 -14.251073 239.300079 -0.000018 0.000073 -3.054094 -21.708950 40.843438 -35.671288 3.890306 149.571381 3.057134 -6.839293 20.096057 -103.175377 0.000008 -0.000038 10.937838 13.030310 6.274785 -267.562012 -0.000013 -0.000023 17.115798 -42.699515 32.645442 -239.300186 0.000041 -0.000081 2.863317 -47.372396 -57.306967 89.182404 -0.000015 -0.000049 4.733551 -1.292593 5.688639 -0.000043 0.000078 -464.167572 1.914602 3.114742 3.417879 -0.000044 0.000063 -372.878418 19.196100 -6.731432 2.270265 0.000023 -133.773590 -57.968563 0.000004 -0.000001 -0.000000 -89.182381 -0.000015 -0.000072 9.563243 -17.968573 8.706016 -0.000023 0.000081 -464.167664 0.203919 41.756478 -8.314892 -0.000035 0.000086 -372.878479 -1.282048 -6.493925 -3.556050 -0.000034 -133.773575 -57.968563 -0.000000 -0.000002 -0.000000 
-18.348715 -636.595825 850.216736 86.236022 4.330367 -0.328569 0.000032 -0.000014 73.129601 -4.851194 -6.627988 -6.157441 0.000119 -0.000026 165.477280 -1.386660 -4.330941 2.998540 -0.000011 -0.000042 183.313614 -30.450793 13.887569 18.834385 -0.000037 -17.836460 138.232742 -27.046342 27.684615 -31.383411 35.598572 3.890278 149.571274 -11.827594 -1.831417 -20.083649 103.175438 0.000060 0.000036 -3.544945 20.358694 6.191581 267.561951 -0.000005 -0.000121 -1.411424 -20.423451 -14.278385 239.300140 -0.000066 0.000191 -3.051765 -21.649050 40.837636 -35.671318 3.890284 149.571213 3.119122 -6.885953 20.168666 -103.175484 -0.000020 0.000032 10.988372 12.605969 6.607493 -267.562073 -0.000019 0.000144 15.820603 -42.985502 31.413164 -239.300049 -0.000045 0.000043 2.597014 -47.151811 -57.449076 89.182457 -0.000006 -0.000009 4.775765 -1.249855 5.703892 -0.000033 0.000078 -464.167694 1.896850 3.154365 3.450228 -0.000055 0.000080 -372.878448 19.204395 -6.864775 2.366082 0.000050 -133.773590 -57.968559 0.000002 -0.000002 -0.000001 -89.182297 0.000000 0.000023 9.520673 -17.624499 8.638353 0.000015 0.000057 -464.167694 -0.048897 41.647888 -7.979015 0.000040 0.000084 -372.878510 -0.662954 -7.864434 -2.734940 -0.000006 -133.773575 -57.968563 -0.000000 -0.000002 -0.000000 
-17.880974 -636.305298 850.054382 86.111234 4.309163 -0.333363 0.000014 -0.000025 73.129471 -4.724072 -6.582237 -6.202190 -0.000020 -0.000045 165.477417 -1.338193 -4.366458 3.133907 -0.000064 -0.000057 183.313766 -30.426785 13.858065 18.801518 -0.000034 -17.836542 138.232727 -27.009645 27.730047 -31.443872 35.598446 3.890304 149.571274 -11.811180 -1.833687 -20.099532 103.175529 0.000046 0.000102 -3.490804 20.283182 6.191484 267.561981 0.000022 0.000093 -1.409803 -20.402706 -14.330850 239.300110 0.000006 -0.000049 -3.077137 -21.637857 40.844292 -35.671375 3.890310 149.571167 3.206282 -7.080254 20.240685 -103.175362 0.000000 -0.000031 11.073520 12.376616 6.869634 -267.561798 -0.000004 0.000001 14.595354 -43.266431 30.260166 -239.300156 -0.000008 0.000069 2.294561 -46.955662 -57.573809 89.182411 -0.000006 -0.000053 4.787648 -1.215267 5.696357 0.000005 0.000077 -464.167633 1.797681 3.223387 3.518144 -0.000050 0.000068 -372.878357 19.320601 -6.973460 2.464824 -0.000001 -133.773575 -57.968575 0.000003 0.000002 0.000000 -89.182312 -0.000006 -0.000019 9.451524 -17.334216 8.572325 -0.000030 0.000062 -464.167542 -0.145354 41.463842 -7.922357 0.000079 0.000100 -372.878387 -1.354548 -7.839173 -3.720129 -0.000054 -133.773575 -57.968555 0.000000 -0.000005 -0.000000 
-17.458878 -635.956482 849.926331 85.970505 4.268142 -0.354305 0.000109 -0.000024 73.129562 -4.589975 -6.523411 -6.268566 0.000046 -0.000031 165.477371 -1.285178 -4.381008 3.336086 -0.000041 -0.000042 183.313950 -30.404635 13.856642 18.720488 -0.000057 -17.836555 138.232681 -26.980775 27.741177 -31.481855 35.598499 3.890305 149.571579 -11.831842 -1.841277 -20.128926 103.175423 0.000005 -0.000040 -3.388449 20.355386 6.177275 267.561981 0.000048 -0.000065 -1.421213 -20.465622 -14.384744 239.300201 -0.000073 0.000155 -3.053266 -21.693625 40.832800 -35.671291 3.890331 149.571365 3.282636 -7.042995 20.337226 -103.175346 0.000015 -0.000054 11.064299 12.386849 7.017066 -267.562012 -0.000007 0.000071 13.363425 -43.706384 29.341055 -239.300125 -0.000079 0.000079 2.009664 -46.954788 -57.703590 89.182465 -0.000012 -0.000034 4.773172 -1.194497 5.696730 -0.000031 0.000070 -464.167664 1.680237 3.362326 3.618071 -0.000014 0.000072 -372.878357 19.561693 -7.127726 2.515765 -0.000022 -133.773544 -57.968567 0.000001 0.000001 -0.000001 -89.182274 -0.000008 -0.000004 9.386008 -17.008392 8.548043 0.000031 0.000098 -464.167664 -0.046919 41.239736 -8.131768 -0.000021 0.000053 -372.878479 -2.328891 -8.042859 -4.518994 0.000030 -133.773590 -57.968567 0.000000 -0.000001 -0.000001 
